# xmcd CD database file
#
# Track frame offsets:
#	150
#	18275
#	37152
#	50681
#	70640
#	85834
#	101233
#	116862
#	138761
#	158233
#	174433
#	186430
#	201245
#	221109
#	234529
#	248101
#
# Disc length: 3640 seconds
#
# Revision: 0
# Processed by: cddbd v1.4PL0 Copyright (c) Steve Scherf et al.
# Submitted via: CDex 1.50Beta7
#
DISCID=e90e3610
DTITLE=Laguna Jazz and Blues Band - Timeless Moods
DYEAR=1900
DGENRE=Jazz
TTITLE0=Rude Old Man
TTITLE1=Gee Baby Ain't I Good to You
TTITLE2=Up Jumped Spring
TTITLE3=What a Wonderful World
TTITLE4=Semonette
TTITLE5=My Romance
TTITLE6=Dinah
TTITLE7=Nuages
TTITLE8=Joy Spring
TTITLE9=Groove Merchant
TTITLE10=Little Linda
TTITLE11=Rosetta
TTITLE12=Turtle Blues
TTITLE13=West Coast Blues
TTITLE14=It Don't Mean a Thing (If it Ain't Got That Swing)
TTITLE15=Topsy
EXTD=
EXTT0=
EXTT1=
EXTT2=
EXTT3=
EXTT4=
EXTT5=
EXTT6=
EXTT7=
EXTT8=
EXTT9=
EXTT10=
EXTT11=
EXTT12=
EXTT13=
EXTT14=
EXTT15=
PLAYORDER=
